<svg xmlns="http://www.w3.org/2000/svg" viewBox="0 0 230 394" width="230" height="394"
    preserveAspectRatio="xMidYMid meet"
    style="width: 100%; height: 100%; transform: translate3d(0px, 0px, 0px);">
    <defs>
        <clipPath id="__lottie_element_97">
            <rect width="230" height="394" x="0" y="0"></rect>
        </clipPath>
    </defs>
    <g clip-path="url(#__lottie_element_97)">
        <g transform="matrix(1,0,0,1,19.00000762939453,-4)" opacity="0.3" style="display: block;">
            <g opacity="1" transform="matrix(1,0,0,1,158.47300720214844,119.63999938964844)">
                <path stroke-linecap="butt" stroke-linejoin="miter" fill-opacity="0"
                    stroke-miterlimit="10" stroke="rgb(254,254,254)" stroke-opacity="1"
                    stroke-width="2"
                    d=" M-69.88899993896484,-109.44499969482422 C-69.88899993896484,-109.44499969482422 -46.33300018310547,-76.7770004272461 -31.888999938964844,-63.22200012207031 C-17.444000244140625,-49.66600036621094 24.33300018310547,4.554999828338623 46.555999755859375,54.777000427246094 C46.555999755859375,54.777000427246094 69.88899993896484,109.44499969482422 69.88899993896484,109.44499969482422"></path>
            </g>
            <g opacity="1" transform="matrix(1,0,0,1,149.36199951171875,166.47900390625)">
                <path stroke-linecap="butt" stroke-linejoin="miter" fill-opacity="0"
                    stroke-miterlimit="10" stroke="rgb(254,254,254)" stroke-opacity="1"
                    stroke-width="2"
                    d=" M77.22200012207031,58.1609992980957 C68.9990005493164,47.04999923706055 54.47700119018555,40.2130012512207 43.55500030517578,37.99300003051758 C32.17900085449219,35.68199920654297 20.476999282836914,36.2239990234375 8.956000328063965,35.35499954223633 C-1.5989999771118164,34.55799865722656 -11.720999717712402,32.10300064086914 -21.222000122070312,27.365999221801758 C-30.413000106811523,22.784000396728516 -38.70000076293945,16.406999588012695 -45.6609992980957,8.871000289916992 C-61.01900100708008,-7.751999855041504 -77.22200012207031,-40.50600051879883 -71,-52.50600051879883 C-71,-52.50600051879883 -68.02799987792969,-58.1609992980957 -56.77799987792969,-49.84000015258789 C-40.555999755859375,-37.84000015258789 -15.666999816894531,-40.50600051879883 -15.666999816894531,-40.50600051879883 C-15.666999816894531,-40.50600051879883 41.22200012207031,-45.84000015258789 66.11100006103516,33.270999908447266"></path>
            </g>
            <g opacity="1" transform="matrix(1,0,0,1,156.13999938964844,114.63999938964844)">
                <path stroke-linecap="butt" stroke-linejoin="miter" fill-opacity="0"
                    stroke-miterlimit="10" stroke="rgb(254,254,254)" stroke-opacity="1"
                    stroke-width="2"
                    d=" M60.37099838256836,84.88899993896484 C50.14799880981445,59.33300018310547 5.557000160217285,55.111000061035156 -29.999000549316406,27.33300018310547 C-65.55500030517578,-0.4449999928474426 -69.40699768066406,-97.9260025024414 -69.40699768066406,-97.9260025024414 C-70,-108 -63.999000549316406,-104.66699981689453 -63.999000549316406,-104.66699981689453 C-24.343000411987305,-90.5770034790039 20.329999923706055,-71.88500213623047 40.28200149536133,-32.025001525878906 C51.374000549316406,-9.866999626159668 49.319000244140625,14.904000282287598 51.91400146484375,38.832000732421875 C51.91400146484375,38.832000732421875 57.111000061035156,86.66600036621094 70.0009994506836,108"></path>
            </g>
            <g opacity="1" transform="matrix(1,0,0,1,153.5290069580078,170.50399780273438)">
                <path stroke-linecap="butt" stroke-linejoin="miter" fill-opacity="0"
                    stroke-miterlimit="10" stroke="rgb(254,254,254)" stroke-opacity="1"
                    stroke-width="2"
                    d=" M-73.55500030517578,-57.111000061035156 C-73.55500030517578,-57.111000061035156 -38.88800048828125,-6.443999767303467 6.888999938964844,3.7780001163482666 C6.888999938964844,3.7780001163482666 46.444000244140625,9.555999755859375 73.55500030517578,57.111000061035156"></path>
            </g>
        </g>
        <g transform="matrix(1,0,0,1,15.157005310058594,-4.5050048828125)" opacity="0.3"
            style="display: block;">
            <g opacity="1" transform="matrix(1,0,0,1,200.88800048828125,347.68798828125)">
                <path stroke-linecap="butt" stroke-linejoin="miter" fill-opacity="0"
                    stroke-miterlimit="10" stroke="rgb(254,254,254)" stroke-opacity="1"
                    stroke-width="2"
                    d=" M26.84000015258789,-40.935001373291016 C11.935999870300293,-35.499000549316406 -0.296999990940094,-24.621999740600586 -9.029000282287598,-11.248000144958496 C-14.444999694824219,-2.9539999961853027 -18.57200050354004,6.163000106811523 -21.631999969482422,15.571999549865723 C-23.106000900268555,20.108999252319336 -24.332000732421875,24.722000122070312 -25.34600067138672,29.382999420166016 C-26.18000030517578,33.220001220703125 -26.84000015258789,38.4370002746582 -22.111000061035156,39.90599822998047 C-18.79599952697754,40.935001373291016 -14.977999687194824,39.37200164794922 -12.145999908447266,37.720001220703125 C-7.558000087738037,35.04499816894531 -3.180999994277954,31.927000045776367 0.9819999933242798,28.63599967956543 C9.475000381469727,21.922000885009766 17.100000381469727,14.10200023651123 23.597999572753906,5.442999839782715 C24.7189998626709,3.9489998817443848 25.791000366210938,2.4189999103546143 26.84000015258789,0.8700000047683716 C26.84000015258789,0.8700000047683716 26.84000015258789,-2.4779999256134033 26.84000015258789,-2.4779999256134033 C26.84000015258789,-2.4779999256134033 26.84000015258789,-40.935001373291016 26.84000015258789,-40.935001373291016z"></path>
            </g>
            <g opacity="1" transform="matrix(1,0,0,1,120.80599975585938,244.75100708007812)">
                <path stroke-linecap="butt" stroke-linejoin="miter" fill-opacity="0"
                    stroke-miterlimit="10" stroke="rgb(254,254,254)" stroke-opacity="1"
                    stroke-width="2"
                    d=" M-106.44499969482422,-41.77799987792969 C-106.44499969482422,-41.77799987792969 -97.55599975585938,-47.77799987792969 -50.888999938964844,-19.777999877929688 C-50.888999938964844,-19.777999877929688 20.666000366210938,23.777999877929688 20.666000366210938,23.777999877929688 C20.666000366210938,23.777999877929688 41.77899932861328,35.55500030517578 70.66699981689453,35.33300018310547 C70.66699981689453,35.33300018310547 91.55599975585938,37.55500030517578 106.44499969482422,47.77799987792969"></path>
            </g>
            <g opacity="1" transform="matrix(1,0,0,1,120.13999938964844,252.2729949951172)">
                <path stroke-linecap="butt" stroke-linejoin="miter" fill-opacity="0"
                    stroke-miterlimit="10" stroke="rgb(254,254,254)" stroke-opacity="1"
                    stroke-width="2"
                    d=" M107.58899688720703,34.36800003051758 C107.58899688720703,34.36800003051758 107.58899688720703,31.961999893188477 107.58899688720703,31.961999893188477 C102.8219985961914,27.34600067138672 98.56700134277344,22.18000030517578 94.3010025024414,17.118000030517578 C87.91699981689453,9.541999816894531 81.19100189208984,2.430999994277954 73.41000366210938,-3.736999988555908 C57.7869987487793,-16.121000289916992 39.61899948120117,-24.82699966430664 21.273000717163086,-32.367000579833984 C1.6610000133514404,-40.426998138427734 -18.336000442504883,-48.42599868774414 -38.847999572753906,-53.8849983215332 C-48.93299865722656,-56.56800079345703 -59.25699996948242,-58.54100036621094 -69.69499969482422,-59.08700180053711 C-74.77400207519531,-59.35200119018555 -79.87200164794922,-59.27799987792969 -84.93800354003906,-58.816001892089844 C-89.5459976196289,-58.39500045776367 -94.37799835205078,-57.85900115966797 -98.71900177001953,-56.1619987487793 C-102.29100036621094,-54.766998291015625 -105.5260009765625,-52.26100158691406 -106.50700378417969,-48.393001556396484 C-107.58899688720703,-44.12900161743164 -105.56199645996094,-39.86000061035156 -103.26300048828125,-36.37900161743164 C-100.36299896240234,-31.990999221801758 -96.81400299072266,-27.976999282836914 -93.5250015258789,-23.878000259399414 C-90.1449966430664,-19.666000366210938 -86.74099731445312,-15.473999977111816 -83.2760009765625,-11.331000328063965 C-57.29800033569336,19.72800064086914 -25.797000885009766,49.45199966430664 15.4350004196167,57.1510009765625 C24.82900047302246,58.904998779296875 34.47700119018555,59.35300064086914 43.974998474121094,58.22700119018555 C55.54899978637695,56.85499954223633 66.56700134277344,52.9010009765625 77.86100006103516,50.233001708984375 C87.7249984741211,47.904998779296875 97.58999633789062,47.17100143432617 107.58899688720703,48.2400016784668 C107.58899688720703,48.2400016784668 107.58899688720703,46.415000915527344 107.58899688720703,46.415000915527344 C107.50399780273438,46.404998779296875 107.41799926757812,46.4010009765625 107.33300018310547,46.391998291015625 C107.33300018310547,46.391998291015625 107.33300018310547,41.11000061035156 107.33300018310547,41.11000061035156 C107.41799926757812,41.14899826049805 107.50299835205078,41.1879997253418 107.58899688720703,41.22700119018555 C107.58899688720703,41.22700119018555 107.58899688720703,39.244998931884766 107.58899688720703,39.244998931884766 C107.50299835205078,39.20600128173828 107.41799926757812,39.16899871826172 107.33300018310547,39.130001068115234 C107.33300018310547,39.130001068115234 107.33300018310547,34.125999450683594 107.33300018310547,34.125999450683594 C107.41899871826172,34.20500183105469 107.50199890136719,34.28900146484375 107.58899688720703,34.36800003051758z"></path>
            </g>
            <g opacity="1" transform="matrix(1,0,0,1,203.23699951171875,355.7279968261719)">
                <path stroke-linecap="butt" stroke-linejoin="miter" fill-opacity="0"
                    stroke-miterlimit="10" stroke="rgb(254,254,254)" stroke-opacity="1"
                    stroke-width="2"
                    d=" M-24.458999633789062,31.865999221801758 C-24.458999633789062,31.865999221801758 -5.540999889373779,-8.3100004196167 24.458999633789062,-31.864999771118164"></path>
            </g>
        </g>
    </g>
</svg>